<mxfile host="Electron" modified="2024-09-07T06:49:10.932Z" agent="Mozilla/5.0 (X11; Linux x86_64) AppleWebKit/537.36 (KHTML, like Gecko) draw.io/24.6.4 Chrome/124.0.6367.207 Electron/30.0.6 Safari/537.36" etag="d_FjdjMq4H3sKkbGymfl" version="24.6.4" type="device">
  <diagram name="Page-1" id="tfllTDOA8vSFeczdXibH">
    <mxGraphModel dx="2045" dy="699" grid="1" gridSize="10" guides="1" tooltips="1" connect="1" arrows="1" fold="1" page="1" pageScale="1" pageWidth="850" pageHeight="1100" math="0" shadow="0">
      <root>
        <mxCell id="0" />
        <mxCell id="1" parent="0" />
        <mxCell id="QywiRvyQ8ClWAGQjCXVQ-21" value="Message Broker" style="shape=mxgraph.ibm.box;prType=region;fontStyle=0;verticalAlign=top;align=left;spacingLeft=32;spacingTop=4;fillColor=none;rounded=0;whiteSpace=wrap;html=1;strokeColor=#919191;strokeWidth=1;dashed=0;container=1;spacing=-4;collapsible=0;expand=0;recursiveResize=0;" parent="1" vertex="1">
          <mxGeometry x="260" y="340" width="390" height="270" as="geometry" />
        </mxCell>
        <mxCell id="QywiRvyQ8ClWAGQjCXVQ-4" value="foo@example.com" style="strokeWidth=1;outlineConnect=0;dashed=0;align=center;html=1;fontSize=12;shape=mxgraph.eip.messageChannel;verticalLabelPosition=bottom;labelBackgroundColor=#ffffff;verticalAlign=top;" parent="QywiRvyQ8ClWAGQjCXVQ-21" vertex="1">
          <mxGeometry x="20" y="200" width="160" height="20" as="geometry" />
        </mxCell>
        <mxCell id="4Ak9TIF4OnKgWuyeXPP_-16" value="bar@example.com" style="strokeWidth=1;outlineConnect=0;dashed=0;align=center;html=1;fontSize=12;shape=mxgraph.eip.deadLetterChannel;verticalLabelPosition=bottom;labelBackgroundColor=#ffffff;verticalAlign=top;" vertex="1" parent="QywiRvyQ8ClWAGQjCXVQ-21">
          <mxGeometry x="20" y="70" width="160" height="20" as="geometry" />
        </mxCell>
        <mxCell id="4Ak9TIF4OnKgWuyeXPP_-7" value="analysis:response" style="fillColor=#c0f5a9;dashed=0;outlineConnect=0;strokeWidth=2;html=1;align=center;fontSize=12;verticalLabelPosition=bottom;verticalAlign=top;shape=mxgraph.eip.message_dispatcher;" vertex="1" parent="QywiRvyQ8ClWAGQjCXVQ-21">
          <mxGeometry x="250" y="105" width="100" height="60" as="geometry" />
        </mxCell>
        <mxCell id="4Ak9TIF4OnKgWuyeXPP_-17" style="rounded=0;orthogonalLoop=1;jettySize=auto;html=1;entryX=1;entryY=0.5;entryDx=-2.7;entryDy=0;entryPerimeter=0;exitX=0;exitY=0.5;exitDx=0;exitDy=0;exitPerimeter=0;" edge="1" parent="QywiRvyQ8ClWAGQjCXVQ-21" source="4Ak9TIF4OnKgWuyeXPP_-7" target="QywiRvyQ8ClWAGQjCXVQ-4">
          <mxGeometry relative="1" as="geometry">
            <Array as="points">
              <mxPoint x="230" y="135" />
              <mxPoint x="200" y="210" />
            </Array>
          </mxGeometry>
        </mxCell>
        <mxCell id="QywiRvyQ8ClWAGQjCXVQ-5" value="global&lt;br&gt;(Dead Letter)" style="strokeWidth=1;outlineConnect=0;dashed=0;align=center;html=1;fontSize=12;shape=mxgraph.eip.messageChannel;verticalLabelPosition=bottom;labelBackgroundColor=#ffffff;verticalAlign=top;" parent="QywiRvyQ8ClWAGQjCXVQ-21" vertex="1">
          <mxGeometry x="20" y="125" width="160" height="20" as="geometry" />
        </mxCell>
        <mxCell id="4Ak9TIF4OnKgWuyeXPP_-18" style="edgeStyle=orthogonalEdgeStyle;rounded=0;orthogonalLoop=1;jettySize=auto;html=1;entryX=1;entryY=0.5;entryDx=-2.7;entryDy=0;entryPerimeter=0;" edge="1" parent="QywiRvyQ8ClWAGQjCXVQ-21" source="4Ak9TIF4OnKgWuyeXPP_-7" target="QywiRvyQ8ClWAGQjCXVQ-5">
          <mxGeometry relative="1" as="geometry" />
        </mxCell>
        <mxCell id="4Ak9TIF4OnKgWuyeXPP_-19" style="rounded=0;orthogonalLoop=1;jettySize=auto;html=1;entryX=1;entryY=0.5;entryDx=-2.7;entryDy=0;entryPerimeter=0;exitX=0;exitY=0.5;exitDx=0;exitDy=0;exitPerimeter=0;" edge="1" parent="QywiRvyQ8ClWAGQjCXVQ-21" source="4Ak9TIF4OnKgWuyeXPP_-7" target="4Ak9TIF4OnKgWuyeXPP_-16">
          <mxGeometry relative="1" as="geometry">
            <Array as="points">
              <mxPoint x="230" y="135" />
              <mxPoint x="200" y="80" />
            </Array>
          </mxGeometry>
        </mxCell>
        <mxCell id="4Ak9TIF4OnKgWuyeXPP_-27" value="Queue unavailable due to client disconnection, mark for deletion" style="text;html=1;align=left;verticalAlign=middle;whiteSpace=wrap;rounded=0;fontSize=10;" vertex="1" parent="QywiRvyQ8ClWAGQjCXVQ-21">
          <mxGeometry x="20" y="40" width="160" height="30" as="geometry" />
        </mxCell>
        <mxCell id="QywiRvyQ8ClWAGQjCXVQ-11" value="Analysis Model" style="image;aspect=fixed;perimeter=ellipsePerimeter;html=1;align=center;shadow=0;dashed=0;fontColor=#000000;labelBackgroundColor=default;fontSize=12;spacingTop=0;image=img/lib/ibm/applications/automation_tools.svg;" parent="1" vertex="1">
          <mxGeometry x="680" y="445" width="60" height="60" as="geometry" />
        </mxCell>
        <mxCell id="4Ak9TIF4OnKgWuyeXPP_-4" style="edgeStyle=orthogonalEdgeStyle;rounded=0;orthogonalLoop=1;jettySize=auto;html=1;entryX=1;entryY=0.75;entryDx=0;entryDy=0;exitX=0;exitY=0.75;exitDx=0;exitDy=0;" edge="1" parent="1" source="QywiRvyQ8ClWAGQjCXVQ-17" target="4Ak9TIF4OnKgWuyeXPP_-5">
          <mxGeometry relative="1" as="geometry">
            <mxPoint x="56.83281572999749" y="563.4164078649986" as="targetPoint" />
          </mxGeometry>
        </mxCell>
        <mxCell id="QywiRvyQ8ClWAGQjCXVQ-17" value="analysis_service&lt;br&gt;#2" style="image;aspect=fixed;perimeter=ellipsePerimeter;html=1;align=center;shadow=0;dashed=0;fontColor=#000000;labelBackgroundColor=default;fontSize=12;spacingTop=3;image=img/lib/ibm/applications/application_logic.svg;" parent="1" vertex="1">
          <mxGeometry x="130" y="520" width="60" height="60" as="geometry" />
        </mxCell>
        <mxCell id="4Ak9TIF4OnKgWuyeXPP_-3" style="edgeStyle=orthogonalEdgeStyle;rounded=0;orthogonalLoop=1;jettySize=auto;html=1;entryX=0;entryY=0.25;entryDx=0;entryDy=0;exitX=1;exitY=0.25;exitDx=0;exitDy=0;" edge="1" parent="1" source="4Ak9TIF4OnKgWuyeXPP_-5" target="QywiRvyQ8ClWAGQjCXVQ-17">
          <mxGeometry relative="1" as="geometry">
            <mxPoint x="56.83281572999749" y="536.5835921350014" as="sourcePoint" />
          </mxGeometry>
        </mxCell>
        <mxCell id="4Ak9TIF4OnKgWuyeXPP_-5" value="Client #2&lt;br&gt;(foo@example.com)" style="image;aspect=fixed;perimeter=ellipsePerimeter;html=1;align=center;shadow=0;dashed=0;fontColor=#000000;labelBackgroundColor=default;fontSize=12;spacingTop=0;image=img/lib/ibm/users/user.svg;" vertex="1" parent="1">
          <mxGeometry x="10" y="520" width="60" height="60" as="geometry" />
        </mxCell>
        <mxCell id="4Ak9TIF4OnKgWuyeXPP_-9" style="edgeStyle=orthogonalEdgeStyle;rounded=0;orthogonalLoop=1;jettySize=auto;html=1;entryX=1;entryY=0.5;entryDx=0;entryDy=0;" edge="1" parent="1" source="QywiRvyQ8ClWAGQjCXVQ-4" target="QywiRvyQ8ClWAGQjCXVQ-17">
          <mxGeometry relative="1" as="geometry" />
        </mxCell>
        <mxCell id="4Ak9TIF4OnKgWuyeXPP_-10" style="edgeStyle=orthogonalEdgeStyle;rounded=0;orthogonalLoop=1;jettySize=auto;html=1;entryX=1;entryY=0.75;entryDx=0;entryDy=0;exitX=0;exitY=0.75;exitDx=0;exitDy=0;" edge="1" parent="1" source="4Ak9TIF4OnKgWuyeXPP_-11" target="4Ak9TIF4OnKgWuyeXPP_-13">
          <mxGeometry relative="1" as="geometry">
            <mxPoint x="56.83281572999749" y="433.41640786499863" as="targetPoint" />
          </mxGeometry>
        </mxCell>
        <mxCell id="4Ak9TIF4OnKgWuyeXPP_-11" value="analysis_service&lt;br&gt;#1" style="image;aspect=fixed;perimeter=ellipsePerimeter;html=1;align=center;shadow=0;dashed=0;fontColor=#000000;labelBackgroundColor=default;fontSize=12;spacingTop=3;image=img/lib/ibm/applications/application_logic.svg;" vertex="1" parent="1">
          <mxGeometry x="130" y="390" width="60" height="60" as="geometry" />
        </mxCell>
        <mxCell id="4Ak9TIF4OnKgWuyeXPP_-12" style="edgeStyle=orthogonalEdgeStyle;rounded=0;orthogonalLoop=1;jettySize=auto;html=1;entryX=0;entryY=0.25;entryDx=0;entryDy=0;exitX=1;exitY=0.25;exitDx=0;exitDy=0;" edge="1" parent="1" source="4Ak9TIF4OnKgWuyeXPP_-13" target="4Ak9TIF4OnKgWuyeXPP_-11">
          <mxGeometry relative="1" as="geometry">
            <mxPoint x="56.83281572999749" y="406.58359213500137" as="sourcePoint" />
          </mxGeometry>
        </mxCell>
        <mxCell id="4Ak9TIF4OnKgWuyeXPP_-13" value="Client #1&lt;br&gt;(bar@example.com)" style="image;aspect=fixed;perimeter=ellipsePerimeter;html=1;align=center;shadow=0;dashed=0;fontColor=#000000;labelBackgroundColor=default;fontSize=12;spacingTop=0;image=img/lib/ibm/users/user.svg;" vertex="1" parent="1">
          <mxGeometry x="10" y="390" width="60" height="60" as="geometry" />
        </mxCell>
        <mxCell id="4Ak9TIF4OnKgWuyeXPP_-15" style="edgeStyle=orthogonalEdgeStyle;rounded=0;orthogonalLoop=1;jettySize=auto;html=1;entryX=1;entryY=0.5;entryDx=0;entryDy=0;exitX=0;exitY=0.5;exitDx=2.7;exitDy=0;exitPerimeter=0;" edge="1" parent="1" source="4Ak9TIF4OnKgWuyeXPP_-16" target="4Ak9TIF4OnKgWuyeXPP_-11">
          <mxGeometry relative="1" as="geometry">
            <mxPoint x="280" y="420" as="sourcePoint" />
          </mxGeometry>
        </mxCell>
        <mxCell id="4Ak9TIF4OnKgWuyeXPP_-20" value="" style="shadow=0;dashed=0;html=1;strokeColor=default;fillColor=none;labelPosition=center;verticalLabelPosition=bottom;verticalAlign=top;align=center;outlineConnect=0;shape=mxgraph.veeam.2d.alert;" vertex="1" parent="1">
          <mxGeometry x="50" y="370" width="53.2" height="53.2" as="geometry" />
        </mxCell>
        <mxCell id="4Ak9TIF4OnKgWuyeXPP_-22" value="" style="edgeStyle=orthogonalEdgeStyle;rounded=0;exitX=1;exitY=0.5;endArrow=none;dashed=0;html=1;strokeColor=#808080;strokeWidth=2;entryX=0.5;entryY=0;entryDx=0;entryDy=0;exitDx=0;exitDy=0;exitPerimeter=0;" edge="1" source="4Ak9TIF4OnKgWuyeXPP_-24" target="4Ak9TIF4OnKgWuyeXPP_-23" parent="1">
          <mxGeometry relative="1" as="geometry">
            <mxPoint x="160" y="280" as="targetPoint" />
            <Array as="points">
              <mxPoint x="236" y="364" />
            </Array>
          </mxGeometry>
        </mxCell>
        <mxCell id="4Ak9TIF4OnKgWuyeXPP_-23" value="" style="strokeWidth=2;dashed=0;align=center;fontSize=8;shape=ellipse;fillColor=#808080;strokeColor=none;" vertex="1" parent="1">
          <mxGeometry x="230" y="411.2" width="12" height="12" as="geometry" />
        </mxCell>
        <mxCell id="4Ak9TIF4OnKgWuyeXPP_-24" value="Client Disconnected" style="html=1;strokeWidth=2;outlineConnect=0;dashed=0;align=right;fontSize=8;shape=mxgraph.eip.message_1;fillColor=#ff5500;fontStyle=0;whiteSpace=wrap;html=1;labelPosition=left;verticalLabelPosition=middle;verticalAlign=middle;spacing=6;" vertex="1" parent="1">
          <mxGeometry x="200" y="350" width="22" height="22" as="geometry" />
        </mxCell>
        <mxCell id="4Ak9TIF4OnKgWuyeXPP_-28" style="rounded=0;orthogonalLoop=1;jettySize=auto;html=1;entryX=1;entryY=0.75;entryDx=0;entryDy=0;exitX=0;exitY=0.5;exitDx=2.7;exitDy=0;exitPerimeter=0;" edge="1" parent="1" source="QywiRvyQ8ClWAGQjCXVQ-5" target="4Ak9TIF4OnKgWuyeXPP_-11">
          <mxGeometry relative="1" as="geometry">
            <Array as="points">
              <mxPoint x="250" y="475" />
              <mxPoint x="230" y="433" />
            </Array>
          </mxGeometry>
        </mxCell>
        <mxCell id="4Ak9TIF4OnKgWuyeXPP_-29" style="rounded=0;orthogonalLoop=1;jettySize=auto;html=1;entryX=1;entryY=0.25;entryDx=0;entryDy=0;exitX=0;exitY=0.5;exitDx=2.7;exitDy=0;exitPerimeter=0;" edge="1" parent="1" source="QywiRvyQ8ClWAGQjCXVQ-5" target="QywiRvyQ8ClWAGQjCXVQ-17">
          <mxGeometry relative="1" as="geometry">
            <Array as="points">
              <mxPoint x="250" y="475" />
              <mxPoint x="230" y="537" />
            </Array>
          </mxGeometry>
        </mxCell>
        <mxCell id="4Ak9TIF4OnKgWuyeXPP_-30" style="edgeStyle=orthogonalEdgeStyle;rounded=0;orthogonalLoop=1;jettySize=auto;html=1;entryX=1;entryY=0.5;entryDx=0;entryDy=0;entryPerimeter=0;" edge="1" parent="1" source="QywiRvyQ8ClWAGQjCXVQ-11" target="4Ak9TIF4OnKgWuyeXPP_-7">
          <mxGeometry relative="1" as="geometry" />
        </mxCell>
      </root>
    </mxGraphModel>
  </diagram>
</mxfile>
